<svg xmlns="http://www.w3.org/2000/svg" width="1200" height="630" viewBox="0 0 1200 630">
  <defs>
    <linearGradient id="bg" x1="0%" y1="0%" x2="100%" y2="100%">
      <stop offset="0%" style="stop-color:#0f0f1a"/>
      <stop offset="100%" style="stop-color:#1a1a2e"/>
    </linearGradient>
  </defs>
  <rect width="1200" height="630" fill="url(#bg)"/>
  <g transform="translate(520, 180)">
    <rect width="160" height="160" rx="20" fill="#0077B5"/>
    <path d="M40 60h20v60H40V60zm10-30a12.5 12.5 0 110 25 12.5 12.5 0 010-25zm30 30h20v8c3-5 10-9 20-9 20 0 20 15 20 31v31h-20v-27.5c0-7.5-2.5-12.5-10-12.5s-10 5-10 12.5v27.5h-20V60z" fill="white"/>
  </g>
  <text x="600" y="420" text-anchor="middle" font-family="Inter, -apple-system, sans-serif" font-size="48" font-weight="700" fill="white">LinkedIn Banner Generator</text>
  <text x="600" y="480" text-anchor="middle" font-family="Inter, -apple-system, sans-serif" font-size="24" font-weight="400" fill="#a0a0b0">1584 × 396px 고해상도 배너 생성기</text>
</svg>
